<?xml version="1.0"?>
<svg width="24" height="24" xmlns="http://www.w3.org/2000/svg" xmlns:svg="http://www.w3.org/2000/svg">
 <g>
  <title>Layer 1</title>
  <path fill="black" id="svg_1" d="m5.148259,5.048854c-1.722546,1.776551 -2.775213,4.219308 -2.775213,6.933483s1.028743,5.230955 2.775213,7.007506l1.722546,-1.776551c-1.291909,-1.332413 -2.105334,-3.182987 -2.105334,-5.25563c0,-2.047968 0.7895,-3.824519 2.105334,-5.156932l-1.722546,-1.776551l0,0.024674zm13.612896,-0.024674l-1.722546,1.776551c1.291909,1.332413 2.105334,3.108964 2.105334,5.156932c0,2.047968 -0.7895,3.898542 -2.105334,5.25563l1.722546,1.776551c1.722546,-1.776551 2.775213,-4.293331 2.775213,-7.007506c0,-2.714175 -1.028743,-5.156932 -2.775213,-6.933483l0,-0.024674zm-10.167804,3.479079c-0.861273,0.888275 -1.411531,2.121991 -1.411531,3.479079c0,1.357087 0.550258,2.664826 1.411531,3.553102l1.650773,-1.776551c-0.430636,-0.444138 -0.669879,-1.08567 -0.669879,-1.776551c0,-0.690881 0.239242,-1.233716 0.669879,-1.702528l-1.650773,-1.776551zm6.722713,0l-1.650773,1.776551c0.430636,0.444138 0.669879,1.011647 0.669879,1.702528c0,0.690881 -0.239242,1.332413 -0.669879,1.776551l1.650773,1.776551c0.861273,-0.888275 1.411531,-2.196014 1.411531,-3.553102c0,-1.357087 -0.550258,-2.590803 -1.411531,-3.479079z"/>
 </g>
</svg>