<?xml version="1.0" encoding="UTF-8" standalone="no"?>
<svg width="24px" height="24px" viewBox="0 0 24 24" version="1.1" xmlns="http://www.w3.org/2000/svg" xmlns:xlink="http://www.w3.org/1999/xlink">
    <!-- Generator: Sketch 41 (35326) - http://www.bohemiancoding.com/sketch -->
    <title>digital_out</title>
    <desc>Created with Sketch.</desc>
    <defs></defs>
    <g id="icon" stroke="none" stroke-width="1" fill="none" fill-rule="evenodd">
        <g id="digital_out" fill="#000000">
            <path d="M18,13 L9.82929429,13 C9.41745788,11.8348076 8.30621883,11 7,11 C5.34314575,11 4,12.3431458 4,14 C4,15.6568542 5.34314575,17 7,17 C8.30621883,17 9.41745788,16.1651924 9.82929429,15 L18,15 L18,17 L22,14 L18,11 L18,13 Z M12.1973068,17 C11.1598786,18.7934041 9.22084707,20 7,20 C3.6862915,20 1,17.3137085 1,14 C1,10.6862915 3.6862915,8 7,8 C9.22084707,8 11.1598786,9.20659589 12.1973068,11 L11.0003662,11 C10.0881599,9.7855533 8.63581783,9 7,9 C4.23857625,9 2,11.2385763 2,14 C2,16.7614237 4.23857625,19 7,19 C8.63581783,19 10.0881599,18.2144467 11.0003662,17 L12.1973068,17 L12.1973068,17 Z M20,3 L21,3 L21,4 L20,4 L20,3 Z M21,2 L22,2 L22,8 L21,8 L21,2 Z M15,3.99791312 C15,2.89449617 15.8877296,2 17,2 C18.1045695,2 19,2.89826062 19,3.99791312 L19,6.00208688 C19,7.10550383 18.1122704,8 17,8 C15.8954305,8 15,7.10173938 15,6.00208688 L15,3.99791312 Z M16,4.0093689 C16,3.45190985 16.4438648,3 17,3 C17.5522847,3 18,3.44335318 18,4.0093689 L18,5.9906311 C18,6.54809015 17.5561352,7 17,7 C16.4477153,7 16,6.55664682 16,5.9906311 L16,4.0093689 Z" id="Combined-Shape"></path>
        </g>
    </g>
</svg>