<?xml version="1.0" encoding="UTF-8" standalone="no"?>
<svg width="24px" height="24px" viewBox="0 0 24 24" version="1.1" xmlns="http://www.w3.org/2000/svg" xmlns:xlink="http://www.w3.org/1999/xlink">
    <!-- Generator: Sketch 41 (35326) - http://www.bohemiancoding.com/sketch -->
    <title>fractal_network_in</title>
    <desc>Created with Sketch.</desc>
    <defs></defs>
    <g id="icon" stroke="none" stroke-width="1" fill="none" fill-rule="evenodd">
        <g id="fractal_network_in" fill="#000000">
            <path d="M16,12 L1,12 L1,14 L16,14 L16,16 L20,13 L16,10 L16,12 Z M12,15 L12,16.000385 C12,17.1125667 12.8952581,18 13.999615,18 L20.000385,18 C21.1125667,18 22,17.1047419 22,16.000385 L22,9.99961498 C22,8.88743329 21.1047419,8 20.000385,8 L13.999615,8 C12.8874333,8 12,8.89525812 12,9.99961498 L12,11 L13,11 L13,9.99703014 C13,9.4463856 13.4530363,9 13.9970301,9 L20.0029699,9 C20.5536144,9 21,9.45303631 21,9.99703014 L21,16.0029699 C21,16.5536144 20.5469637,17 20.0029699,17 L13.9970301,17 C13.4463856,17 13,16.5469637 13,16.0029699 L13,15 L12,15 Z M7,6.03693931 L7.62724936,5.97361478 C7.6569553,6.26385369 7.72607772,6.50197796 7.83461868,6.68799472 C7.94315964,6.87401148 8.11168123,7.02440576 8.34018852,7.13918206 C8.5686958,7.25395836 8.82576264,7.31134565 9.11139674,7.31134565 C9.36503983,7.31134565 9.58897361,7.26781046 9.7832048,7.18073879 C9.97743599,7.09366711 10.1219647,6.97427516 10.2167952,6.82255937 C10.3116257,6.67084357 10.3590403,6.50527794 10.3590403,6.32585752 C10.3590403,6.14379856 10.3133395,5.98482918 10.2219366,5.84894459 C10.1305337,5.71306001 9.97972113,5.59894505 9.76949443,5.50659631 C9.63467513,5.44590999 9.3364776,5.35158375 8.87489289,5.22361478 C8.41330817,5.0956458 8.08997522,4.9749346 7.90488432,4.86147757 C7.66495167,4.71635811 7.4861474,4.53628076 7.36846615,4.32124011 C7.2507849,4.10619945 7.19194516,3.86543669 7.19194516,3.59894459 C7.19194516,3.30606714 7.26392387,3.03232317 7.40788346,2.77770449 C7.55184305,2.5230858 7.7620666,2.32981596 8.03856041,2.19788918 C8.31505422,2.0659624 8.62239191,2 8.96058269,2 C9.33304956,2 9.66152386,2.06926052 9.94601542,2.20778364 C10.230507,2.34630676 10.4492994,2.55013058 10.6023993,2.81926121 C10.7554992,3.08839185 10.8377606,3.39313814 10.8491859,3.73350923 L10.2116538,3.78891821 C10.1773777,3.42216175 10.061412,3.14511967 9.86375321,2.95778364 C9.66609441,2.77044761 9.37418074,2.676781 8.98800343,2.676781 C8.58583061,2.676781 8.29277441,2.7618725 8.10882605,2.93205805 C7.92487769,3.10224359 7.83290488,3.30738666 7.83290488,3.5474934 C7.83290488,3.75593772 7.89802848,3.92743996 8.02827763,4.06200528 C8.15624171,4.19657059 8.4904286,4.33443201 9.03084833,4.47559367 C9.57126805,4.61675532 9.94201556,4.74010501 10.143102,4.84564644 C10.4355913,5.00132004 10.6515274,5.19854762 10.7909169,5.43733509 C10.9303063,5.67612257 11,5.95118578 11,6.26253298 C11,6.57124165 10.9234512,6.86213584 10.7703513,7.13522427 C10.6172514,7.40831271 10.3973165,7.62071164 10.1105398,7.77242744 C9.8237632,7.92414324 9.50100151,8 9.14224507,8 C8.68751558,8 8.3064854,7.92348361 7.9991431,7.77044855 C7.69180081,7.61741348 7.45072924,7.3872047 7.27592117,7.0798153 C7.10111309,6.7724259 7.00914029,6.42480405 7,6.03693931 Z M2,2 L3,2 L3,8 L2,8 L2,2 Z M3,2 L6,2 L6,3 L3,3 L3,2 Z M3,5 L6,5 L6,6 L3,6 L3,5 Z" id="Combined-Shape"></path>
        </g>
    </g>
</svg>