<?xml version="1.0" encoding="UTF-8" standalone="no"?>
<svg width="24px" height="24px" viewBox="0 0 24 24" version="1.1" xmlns="http://www.w3.org/2000/svg" xmlns:xlink="http://www.w3.org/1999/xlink">
    <!-- Generator: Sketch 3.6.1 (26313) - http://www.bohemiancoding.com/sketch -->
    <title>ic_in</title>
    <desc>Created with Sketch.</desc>
    <defs></defs>
    <g id="icon" stroke="none" stroke-width="1" fill="none" fill-rule="evenodd">
        <g id="ic_in">
            <path d="M3.93551965,8 C5.40822224,5.03656304 8.46627873,3 12,3 C16.9705627,3 21,7.02943725 21,12 C21,16.9705627 16.9705627,21 12,21 C8.46627873,21 5.40822224,18.963437 3.93551965,16 L5.07025756,16 C6.45349524,18.3912055 9.03887058,20 12,20 C16.418278,20 20,16.418278 20,12 C20,7.581722 16.418278,4 12,4 C9.03887058,4 6.45349524,5.60879452 5.07025756,8 L3.93551965,8 Z" id="Combined-Shape" fill="#0E1F2B"></path>
            <rect id="Rectangle-19" fill="#25282A" x="1" y="11.5" width="13" height="1"></rect>
            <path d="M13.3104363,12.0174983 L10.1398624,15.1880722 C9.95380518,15.3741294 9.95096059,15.6935565 10.1462227,15.8888187 C10.3357743,16.0783702 10.6552198,16.0869284 10.8469692,15.8951789 L14.2607841,12.4813641 C14.3069912,12.4581491 14.3503434,12.4273387 14.3888634,12.3888187 C14.4893995,12.2882826 14.5390198,12.1512058 14.5348427,12.016022 C14.5385426,11.8833171 14.4905847,11.7478992 14.3888634,11.646178 C14.3508796,11.6081942 14.3076799,11.5774782 14.261337,11.5541855 L10.8469692,8.13981767 C10.660912,7.95376041 10.3414849,7.95091582 10.1462227,8.14617797 C9.95667116,8.33572954 9.94811299,8.655175 10.1398624,8.84692445 L13.3104363,12.0174983 Z" id="Combined-Shape" fill="#25282A"></path>
        </g>
    </g>
</svg>