<?xml version="1.0" encoding="UTF-8" standalone="no"?>
<svg width="24px" height="24px" viewBox="0 0 24 24" version="1.1" xmlns="http://www.w3.org/2000/svg" xmlns:xlink="http://www.w3.org/1999/xlink">
    <!-- Generator: Sketch 3.6.1 (26313) - http://www.bohemiancoding.com/sketch -->
    <title>ic_system_led</title>
    <desc>Created with Sketch.</desc>
    <defs></defs>
    <g id="icon" stroke="none" stroke-width="1" fill="none" fill-rule="evenodd">
        <g id="ic_system_led" fill="#25282A">
            <rect id="Rectangle-3-Copy" transform="translate(9.500000, 17.500000) rotate(-90.000000) translate(-9.500000, -17.500000) " x="6" y="17" width="7" height="1" rx="1"></rect>
            <rect id="Rectangle-3-Copy-2" transform="translate(14.500000, 17.500000) rotate(-90.000000) translate(-14.500000, -17.500000) " x="11" y="17" width="7" height="1" rx="1"></rect>
            <path d="M16,5.99620271 C16,3.78883037 14.209139,2 12,2 C9.79535615,2 8,3.78916089 8,5.99620271 L8,12 L9,12 L9,6.00335124 C9,4.34464615 10.3465171,3 12,3 C13.6568542,3 15,4.34237885 15,6.00335124 L15,12 L16,12 L16,5.99620271 Z" id="Combined-Shape"></path>
            <path d="M6,11 L18,11 L18,15 L6,15 L6,11 L6,11 L6,11 Z M7,12 L17,12 L17,14 L7,14 L7,12 L7,12 L7,12 Z" id="Combined-Shape"></path>
        </g>
    </g>
</svg>