<?xml version="1.0" encoding="UTF-8" standalone="no"?>
<svg width="24px" height="24px" viewBox="0 0 24 24" version="1.1" xmlns="http://www.w3.org/2000/svg" xmlns:xlink="http://www.w3.org/1999/xlink">
    <!-- Generator: Sketch 41 (35326) - http://www.bohemiancoding.com/sketch -->
    <title>lifeseed_network_out</title>
    <desc>Created with Sketch.</desc>
    <defs></defs>
    <g id="icon" stroke="none" stroke-width="1" fill="none" fill-rule="evenodd">
        <g id="lifeseed_network_out" fill="#000000">
            <path d="M10,12 L18,12 L18,14 L10,14 L10,15.009222 C10,15.5564136 9.54902482,16 9.00922203,16 L4.99077797,16 C4.44358641,16 4,15.5490248 4,15.009222 L4,10.990778 C4,10.4435864 4.45097518,10 4.99077797,10 L9.00922203,10 C9.55641359,10 10,10.4509752 10,10.990778 L10,12 Z M12,11 L12,9.99961498 C12,8.88743329 11.1047419,8 10.000385,8 L3.99961498,8 C2.88743329,8 2,8.89525812 2,9.99961498 L2,16.000385 C2,17.1125667 2.89525812,18 3.99961498,18 L10.000385,18 C11.1125667,18 12,17.1047419 12,16.000385 L12,15 L11,15 L11,16.0029699 C11,16.5536144 10.5469637,17 10.0029699,17 L3.99703014,17 C3.4463856,17 3,16.5469637 3,16.0029699 L3,9.99703014 C3,9.4463856 3.45303631,9 3.99703014,9 L10.0029699,9 C10.5536144,9 11,9.45303631 11,9.99703014 L11,11 L12,11 L12,11 Z M22,13 L18,16 L18,10 L22,13 Z M18,6.03693931 L18.6272494,5.97361478 C18.6569553,6.26385369 18.7260777,6.50197796 18.8346187,6.68799472 C18.9431596,6.87401148 19.1116812,7.02440576 19.3401885,7.13918206 C19.5686958,7.25395836 19.8257626,7.31134565 20.1113967,7.31134565 C20.3650398,7.31134565 20.5889736,7.26781046 20.7832048,7.18073879 C20.977436,7.09366711 21.1219647,6.97427516 21.2167952,6.82255937 C21.3116257,6.67084357 21.3590403,6.50527794 21.3590403,6.32585752 C21.3590403,6.14379856 21.3133395,5.98482918 21.2219366,5.84894459 C21.1305337,5.71306001 20.9797211,5.59894505 20.7694944,5.50659631 C20.6346751,5.44590999 20.3364776,5.35158375 19.8748929,5.22361478 C19.4133082,5.0956458 19.0899752,4.9749346 18.9048843,4.86147757 C18.6649517,4.71635811 18.4861474,4.53628076 18.3684662,4.32124011 C18.2507849,4.10619945 18.1919452,3.86543669 18.1919452,3.59894459 C18.1919452,3.30606714 18.2639239,3.03232317 18.4078835,2.77770449 C18.5518431,2.5230858 18.7620666,2.32981596 19.0385604,2.19788918 C19.3150542,2.0659624 19.6223919,2 19.9605827,2 C20.3330496,2 20.6615239,2.06926052 20.9460154,2.20778364 C21.230507,2.34630676 21.4492994,2.55013058 21.6023993,2.81926121 C21.7554992,3.08839185 21.8377606,3.39313814 21.8491859,3.73350923 L21.2116538,3.78891821 C21.1773777,3.42216175 21.061412,3.14511967 20.8637532,2.95778364 C20.6660944,2.77044761 20.3741807,2.676781 19.9880034,2.676781 C19.5858306,2.676781 19.2927744,2.7618725 19.108826,2.93205805 C18.9248777,3.10224359 18.8329049,3.30738666 18.8329049,3.5474934 C18.8329049,3.75593772 18.8980285,3.92743996 19.0282776,4.06200528 C19.1562417,4.19657059 19.4904286,4.33443201 20.0308483,4.47559367 C20.5712681,4.61675532 20.9420156,4.74010501 21.143102,4.84564644 C21.4355913,5.00132004 21.6515274,5.19854762 21.7909169,5.43733509 C21.9303063,5.67612257 22,5.95118578 22,6.26253298 C22,6.57124165 21.9234512,6.86213584 21.7703513,7.13522427 C21.6172514,7.40831271 21.3973165,7.62071164 21.1105398,7.77242744 C20.8237632,7.92414324 20.5010015,8 20.1422451,8 C19.6875156,8 19.3064854,7.92348361 18.9991431,7.77044855 C18.6918008,7.61741348 18.4507292,7.3872047 18.2759212,7.0798153 C18.1011131,6.7724259 18.0091403,6.42480405 18,6.03693931 Z M13,2 L14,2 L14,8 L13,8 L13,2 Z M14,7 L17,7 L17,8 L14,8 L14,7 Z" id="Combined-Shape"></path>
        </g>
    </g>
</svg>