<?xml version="1.0" encoding="UTF-8" standalone="no"?>
<svg width="24px" height="24px" viewBox="0 0 24 24" version="1.1" xmlns="http://www.w3.org/2000/svg" xmlns:xlink="http://www.w3.org/1999/xlink">
    <!-- Generator: Sketch 3.6.1 (26313) - http://www.bohemiancoding.com/sketch -->
    <title>ic_math</title>
    <desc>Created with Sketch.</desc>
    <defs></defs>
    <g id="icon" stroke="none" stroke-width="1" fill="none" fill-rule="evenodd">
        <g id="ic_math" fill="#25282A">
            <path d="M0,1.99201702 C0,0.891856397 0.900176167,0 1.99201702,0 L9.00798298,0 C10.1081436,0 11,0.900176167 11,1.99201702 L11,9.00798298 C11,10.1081436 10.0998238,11 9.00798298,11 L1.99201702,11 C0.891856397,11 0,10.0998238 0,9.00798298 L0,1.99201702 L0,1.99201702 Z M1,1.99754465 C1,1.44661595 1.4463114,1 1.99754465,1 L9.00245535,1 C9.55338405,1 10,1.4463114 10,1.99754465 L10,9.00245535 C10,9.55338405 9.5536886,10 9.00245535,10 L1.99754465,10 C1.44661595,10 1,9.5536886 1,9.00245535 L1,1.99754465 L1,1.99754465 Z M0,14.992017 C0,13.8918564 0.900176167,13 1.99201702,13 L9.00798298,13 C10.1081436,13 11,13.9001762 11,14.992017 L11,22.007983 C11,23.1081436 10.0998238,24 9.00798298,24 L1.99201702,24 C0.891856397,24 0,23.0998238 0,22.007983 L0,14.992017 L0,14.992017 Z M1,14.9975446 C1,14.446616 1.4463114,14 1.99754465,14 L9.00245535,14 C9.55338405,14 10,14.4463114 10,14.9975446 L10,22.0024554 C10,22.553384 9.5536886,23 9.00245535,23 L1.99754465,23 C1.44661595,23 1,22.5536886 1,22.0024554 L1,14.9975446 L1,14.9975446 Z M13,1.99201702 C13,0.891856397 13.9001762,0 14.992017,0 L22.007983,0 C23.1081436,0 24,0.900176167 24,1.99201702 L24,9.00798298 C24,10.1081436 23.0998238,11 22.007983,11 L14.992017,11 C13.8918564,11 13,10.0998238 13,9.00798298 L13,1.99201702 L13,1.99201702 Z M14,1.99754465 C14,1.44661595 14.4463114,1 14.9975446,1 L22.0024554,1 C22.553384,1 23,1.4463114 23,1.99754465 L23,9.00245535 C23,9.55338405 22.5536886,10 22.0024554,10 L14.9975446,10 C14.446616,10 14,9.5536886 14,9.00245535 L14,1.99754465 L14,1.99754465 Z M13,14.992017 C13,13.8918564 13.9001762,13 14.992017,13 L22.007983,13 C23.1081436,13 24,13.9001762 24,14.992017 L24,22.007983 C24,23.1081436 23.0998238,24 22.007983,24 L14.992017,24 C13.8918564,24 13,23.0998238 13,22.007983 L13,14.992017 L13,14.992017 Z M14,14.9975446 C14,14.446616 14.4463114,14 14.9975446,14 L22.0024554,14 C22.553384,14 23,14.4463114 23,14.9975446 L23,22.0024554 C23,22.553384 22.5536886,23 22.0024554,23 L14.9975446,23 C14.446616,23 14,22.5536886 14,22.0024554 L14,14.9975446 L14,14.9975446 Z" id="Combined-Shape"></path>
            <path d="M5,5 L3,5 L3,6 L5,6 L5,8 L6,8 L6,6 L8,6 L8,5 L6,5 L6,3 L5,3 L5,5 L5,5 Z M18.5,17.7928932 L17.0857864,16.3786797 L16.3786797,17.0857864 L17.7928932,18.5 L16.3786797,19.9142136 L17.0857864,20.6213203 L18.5,19.2071068 L19.9142136,20.6213203 L20.6213203,19.9142136 L19.2071068,18.5 L20.6213203,17.0857864 L19.9142136,16.3786797 L18.5,17.7928932 L18.5,17.7928932 Z M3.37867966,19.9142136 L6.91421356,16.3786797 L7.62132034,17.0857864 L4.08578644,20.6213203 L3.37867966,19.9142136 L3.37867966,19.9142136 Z M3.73223305,17.4393398 C3.92749519,17.634602 4.24407768,17.634602 4.43933983,17.4393398 C4.63460197,17.2440777 4.63460197,16.9274952 4.43933983,16.732233 C4.24407768,16.5369709 3.92749519,16.5369709 3.73223305,16.732233 C3.5369709,16.9274952 3.5369709,17.2440777 3.73223305,17.4393398 L3.73223305,17.4393398 Z M6.56066017,20.267767 C6.75592232,20.4630291 7.07250481,20.4630291 7.26776695,20.267767 C7.4630291,20.0725048 7.4630291,19.7559223 7.26776695,19.5606602 C7.07250481,19.365398 6.75592232,19.365398 6.56066017,19.5606602 C6.36539803,19.7559223 6.36539803,20.0725048 6.56066017,20.267767 L6.56066017,20.267767 Z M16,5 L21,5 L21,6 L16,6 L16,5 L16,5 Z" id="Combined-Shape"></path>
        </g>
    </g>
</svg>