<?xml version="1.0" encoding="UTF-8" standalone="no"?>
<svg width="24px" height="24px" viewBox="0 0 24 24" version="1.1" xmlns="http://www.w3.org/2000/svg" xmlns:xlink="http://www.w3.org/1999/xlink">
    <!-- Generator: Sketch 41 (35326) - http://www.bohemiancoding.com/sketch -->
    <title>multiplexer</title>
    <desc>Created with Sketch.</desc>
    <defs></defs>
    <g id="icon" stroke="none" stroke-width="1" fill="none" fill-rule="evenodd">
        <g id="multiplexer" fill="#000000">
            <path d="M11,3 L9,3 L12,7 L15,3 L13,3 L13,0 L11,0 L11,3 Z M17,13 L19,13 L19,11 L23,14 L19,17 L19,15 L17,15 L17,19 L7,22 L7,6 L17,9 L17,13 Z M8,7.5 L16,9.5 L16,18.5 L8,20.5 L8,7.5 Z M1,9 L7,9 L7,11 L1,11 L1,9 Z M1,17 L7,17 L7,19 L1,19 L1,17 Z" id="Combined-Shape"></path>
        </g>
    </g>
</svg>