<?xml version="1.0" encoding="UTF-8" standalone="no"?>
<svg width="24px" height="24px" viewBox="0 0 24 24" version="1.1" xmlns="http://www.w3.org/2000/svg" xmlns:xlink="http://www.w3.org/1999/xlink">
    <!-- Generator: Sketch 41 (35326) - http://www.bohemiancoding.com/sketch -->
    <title>not_gate</title>
    <desc>Created with Sketch.</desc>
    <defs></defs>
    <g id="icon" stroke="none" stroke-width="1" fill="none" fill-rule="evenodd">
        <g id="not_gate" fill="#000000">
            <path d="M19.8292943,11 C19.4174579,9.83480763 18.3062188,9 17,9 C15.5372723,9 14.3190478,10.0468429 14.0536596,11.4321957 L5,6 L5,18 L14.0536596,12.5678043 C14.3190478,13.9531571 15.5372723,15 17,15 C18.3062188,15 19.4174579,14.1651924 19.8292943,13 L23,13 L23,11 L19.8292943,11 Z M17,14 C18.1045695,14 19,13.1045695 19,12 C19,10.8954305 18.1045695,10 17,10 C15.8954305,10 15,10.8954305 15,12 C15,13.1045695 15.8954305,14 17,14 Z M1,11 L5,11 L5,13 L1,13 L1,11 Z" id="Combined-Shape"></path>
        </g>
    </g>
</svg>