<?xml version="1.0" encoding="UTF-8" standalone="no"?>
<svg width="24px" height="24px" viewBox="0 0 24 24" version="1.1" xmlns="http://www.w3.org/2000/svg" xmlns:xlink="http://www.w3.org/1999/xlink">
    <!-- Generator: Sketch 3.6.1 (26313) - http://www.bohemiancoding.com/sketch -->
    <title>ic_engine</title>
    <desc>Created with Sketch.</desc>
    <defs></defs>
    <g id="icon" stroke="none" stroke-width="1" fill="none" fill-rule="evenodd">
        <g id="ic_engine">
            <path d="M9,14 C7.35714286,14 6,12.6666667 6,11 C6,9.33333333 7.33333333,8 9,8 C10.6428571,8 12,9.33333333 12,11 C12,12.6666667 10.6666667,14 9,14 Z M9,13 C7.9047619,13 7,12.1111111 7,11 C7,9.88888889 7.88888889,9 9,9 C10.0952381,9 11,9.88888889 11,11 C11,12.1111111 10.1111111,13 9,13 Z" id="Combined-Shape" fill="#25282A"></path>
            <path d="M13.9485904,17.3814262 L12.7014925,16.8242123 L10.7645108,17.6733002 L10.3399668,18.946932 L8.00497512,19 L7.52736318,17.7263682 L5.53731343,16.9568823 L4.31674959,17.5671642 L2.6185738,15.9485904 L3.17578773,14.7014925 L2.32669983,12.7645108 L1.05306799,12.3399668 L1,10.0049751 L2.27363184,9.52736318 L3.04311774,7.53731343 L2.43283582,6.31674959 L4.05140962,4.6185738 L5.29850746,5.17578773 L7.23548922,4.32669983 L7.66003317,3.05306799 L9.99502488,3 L10.4726368,4.27363184 L12.4626866,5.04311774 L13.6832504,4.43283582 L15.3814262,6.05140962 L14.8242123,7.29850746 L15.6733002,9.23548922 L16.946932,9.66003317 L17,11.9950249 L15.7263682,12.4726368 L14.9568823,14.4626866 L15.5671642,15.6832504 L13.9485904,17.3814262 L13.9485904,17.3814262 Z" id="Shape" stroke="#25282A"></path>
            <path d="M21.4742952,20.1907131 L20.8507463,19.9121061 L19.8822554,20.3366501 L19.6699834,20.973466 L18.5024876,21 L18.2636816,20.3631841 L17.2686567,19.9784411 L16.6583748,20.2835821 L15.8092869,19.4742952 L16.0878939,18.8507463 L15.6633499,17.8822554 L15.026534,17.6699834 L15,16.5024876 L15.6368159,16.2636816 L16.0215589,15.2686567 L15.7164179,14.6583748 L16.5257048,13.8092869 L17.1492537,14.0878939 L18.1177446,13.6633499 L18.3300166,13.026534 L19.4975124,13 L19.7363184,13.6368159 L20.7313433,14.0215589 L21.3416252,13.7164179 L22.1907131,14.5257048 L21.9121061,15.1492537 L22.3366501,16.1177446 L22.973466,16.3300166 L23,17.4975124 L22.3631841,17.7363184 L21.9784411,18.7313433 L22.2835821,19.3416252 L21.4742952,20.1907131 Z M19,19 C17.9047619,19 17,18.1111111 17,17 C17,15.8888889 17.8888889,15 19,15 C20.0952381,15 21,15.8888889 21,17 C21,18.1111111 20.1111111,19 19,19 Z" id="Combined-Shape" fill="#000000"></path>
        </g>
    </g>
</svg>